<svg width="36" height="36" viewBox="0 0 36 36" fill="none" xmlns="http://www.w3.org/2000/svg">
<g clip-path="url(#clip0_34_430)">
<path d="M27.5625 0H8.4375C3.7776 0 0 3.7776 0 8.4375V27.5625C0 32.2224 3.7776 36 8.4375 36H27.5625C32.2224 36 36 32.2224 36 27.5625V8.4375C36 3.7776 32.2224 0 27.5625 0Z" fill="#242938"/>
<mask id="mask0_34_430" style="mask-type:luminance" maskUnits="userSpaceOnUse" x="9" y="5" width="17" height="26">
<path d="M9.90991 5.93506H25.9999V30.0652H9.90991V5.93506Z" fill="white"/>
</mask>
<g mask="url(#mask0_34_430)">
<path d="M13.9333 30.0649C16.1533 30.0649 17.9549 28.2632 17.9549 26.0433V22.0215H13.9333C11.7133 22.0215 9.9115 23.8233 9.9115 26.0433C9.9115 28.2632 11.7133 30.0649 13.9333 30.0649Z" fill="#0ACF83"/>
<path d="M9.9115 18.0002C9.9115 15.7802 11.7133 13.9785 13.9333 13.9785H17.9549V22.0218H13.9333C11.7133 22.0218 9.9115 20.2201 9.9115 18.0002Z" fill="#A259FF"/>
<path d="M9.91138 9.95671C9.91138 7.73674 11.7132 5.93506 13.9332 5.93506H17.9548V13.9785H13.9332C11.7132 13.9785 9.91138 12.1767 9.91138 9.95671Z" fill="#F24E1E"/>
<path d="M17.955 5.93506H21.9766C24.1966 5.93506 25.9984 7.73674 25.9984 9.95671C25.9984 12.1767 24.1966 13.9785 21.9766 13.9785H17.955V5.93506Z" fill="#FF7262"/>
<path d="M25.9984 18.0002C25.9984 20.2201 24.1966 22.0218 21.9766 22.0218C19.7566 22.0218 17.955 20.2201 17.955 18.0002C17.955 15.7802 19.7566 13.9785 21.9766 13.9785C24.1966 13.9785 25.9984 15.7802 25.9984 18.0002Z" fill="#1ABCFE"/>
</g>
</g>
<defs>
<clipPath id="clip0_34_430">
<rect width="36" height="36" fill="white"/>
</clipPath>
</defs>
</svg>
