<svg width="36" height="36" viewBox="0 0 36 36" fill="none" xmlns="http://www.w3.org/2000/svg">
<g clip-path="url(#clip0_34_436)">
<path d="M6.37509 0H29.6249C33.1501 0 36 2.92298 36 6.53856V29.4614C36 33.077 33.1501 36 29.6249 36H6.37509C2.84991 36 0 33.077 0 29.4614V6.53856C0 2.92298 2.84991 0 6.37509 0Z" fill="#001E36"/>
<path d="M11.8001 10C11.3501 10 10.9001 10 10.4352 10.0152C9.97 10.0301 9.53491 10.0301 9.12991 10.0453C8.72491 10.0602 8.35 10.0602 7.99 10.0751C7.64491 10.09 7.405 10.09 7.14991 10.09C7.045 10.09 7 10.1499 7 10.2551V25.6901C7 25.8251 7.05991 25.8853 7.18 25.8853H10.0901C10.195 25.8701 10.2701 25.7801 10.2549 25.6752V20.8602C10.5398 20.8602 10.7499 20.8602 10.9001 20.8751C11.05 20.89 11.2899 20.89 11.6499 20.89C12.8801 20.89 14.0051 20.755 15.0249 20.3801C16 20.0201 16.8401 19.3901 17.44 18.55C18.04 17.71 18.34 16.645 18.34 15.355C18.34 14.68 18.2202 14.0351 17.9952 13.4051C17.7568 12.7633 17.3833 12.1801 16.9 11.6951C16.3296 11.1409 15.6429 10.7207 14.8899 10.4649C14.0498 10.1499 13.03 10 11.8001 10ZM12.1348 12.9545C12.6692 12.9647 13.1895 13.058 13.6749 13.2549C14.11 13.42 14.47 13.7201 14.7251 14.1099C14.9643 14.5133 15.084 14.9764 15.0702 15.4453C15.0702 16.1051 14.92 16.6153 14.605 16.9902C14.2748 17.3651 13.8549 17.6503 13.3751 17.7853C12.8199 17.9653 12.2349 18.055 11.6499 18.055H10.8548C10.6748 18.055 10.4802 18.0401 10.2701 18.0252V12.9852C10.375 12.97 10.5851 12.9551 10.8852 12.9703C11.1701 12.9551 11.5149 12.9551 11.905 12.9551C11.9819 12.9532 12.0585 12.953 12.1348 12.9545ZM24.7151 13.7204C23.65 13.7204 22.7649 13.8852 22.0601 14.2452C21.4152 14.5453 20.86 15.0251 20.4851 15.625C20.1552 16.1802 19.9749 16.795 19.9749 17.4402C19.9621 17.9708 20.0806 18.4964 20.32 18.9702C20.6005 19.4747 20.9901 19.9102 21.4602 20.2451C22.12 20.6964 22.8361 21.0595 23.5901 21.3251C24.325 21.61 24.82 21.835 25.0602 22.0299C25.3001 22.2251 25.4202 22.42 25.4202 22.6301C25.4202 22.9001 25.2551 23.1552 25.0152 23.2601C24.7452 23.3951 24.3402 23.4702 23.7701 23.4702C23.1702 23.4702 22.57 23.3951 21.9999 23.2452C21.3453 23.099 20.7177 22.851 20.14 22.5103C20.095 22.4802 20.05 22.4653 20.005 22.4954C19.96 22.5252 19.9451 22.5851 19.9451 22.6301V25.2401C19.9302 25.3602 20.005 25.4651 20.1102 25.525C20.5966 25.7522 21.1111 25.9137 21.6402 26.0051C22.3152 26.1401 22.9899 26.2 23.6798 26.2C24.7598 26.2 25.6601 26.0352 26.395 25.7202C27.07 25.4502 27.655 24.9853 28.0749 24.3851C28.4682 23.7951 28.6722 23.0992 28.6599 22.3902C28.6747 21.8546 28.5562 21.3237 28.3151 20.8453C28.0299 20.3351 27.6249 19.9152 27.1299 19.6002C26.4058 19.1454 25.6304 18.7778 24.82 18.505C24.4581 18.3552 24.1027 18.1901 23.7549 18.01C23.56 17.9051 23.38 17.7701 23.245 17.605C23.155 17.4849 23.0951 17.3502 23.0951 17.2152C23.0951 17.0802 23.1401 16.9303 23.2149 16.8102C23.3201 16.6603 23.4849 16.5551 23.6798 16.5101C23.965 16.4353 24.28 16.39 24.5798 16.4049C25.1499 16.4049 25.7048 16.48 26.26 16.6001C26.7702 16.705 27.25 16.8701 27.7 17.1103C27.7599 17.1401 27.835 17.1401 27.97 17.1103C27.9934 17.0929 28.0125 17.0703 28.0255 17.0442C28.0385 17.0181 28.0453 16.9893 28.0451 16.9601V14.5152C28.0451 14.455 28.0299 14.3951 28.015 14.3352C27.9849 14.2753 27.925 14.2151 27.8651 14.2002C27.4514 14.0311 27.0179 13.9151 26.575 13.8551C25.9591 13.7654 25.3375 13.7206 24.7151 13.7204Z" fill="#31A8FF"/>
</g>
<defs>
<clipPath id="clip0_34_436">
<rect width="36" height="36" fill="white"/>
</clipPath>
</defs>
</svg>
