<svg width="24" height="24" viewBox="0 0 24 24" fill="none" xmlns="http://www.w3.org/2000/svg">
<path d="M22.6667 17.3333C23.403 17.3333 24 17.9303 24 18.6667V22C24 23.1046 23.1046 24 22 24H2C0.89543 24 0 23.1046 0 22V18.6667C0 17.9303 0.596954 17.3333 1.33333 17.3333C2.06971 17.3333 2.66667 17.9303 2.66667 18.6667V21.3333H21.3333V18.6667C21.3333 17.9303 21.9303 17.3333 22.6667 17.3333ZM0 12C0 11.2636 0.596954 10.6667 1.33333 10.6667H22.6667C23.403 10.6667 24 11.2636 24 12C24 12.7364 23.403 13.3333 22.6667 13.3333H1.33333C0.596954 13.3333 0 12.7364 0 12ZM24 5.33333C24 6.06971 23.403 6.66667 22.6667 6.66667C21.9303 6.66667 21.3333 6.06971 21.3333 5.33333V2.66667H2.66667V5.33333C2.66667 6.06971 2.06971 6.66667 1.33333 6.66667C0.596954 6.66667 0 6.06971 0 5.33333V2C0 0.895429 0.895431 0 2 0H22C23.1046 0 24 0.89543 24 2V5.33333Z" fill="black"/>
</svg>
