<?xml version="1.0" encoding="utf-8"?>
<!-- Generator: Adobe Illustrator 24.1.2, SVG Export Plug-In . SVG Version: 6.00 Build 0)  -->
<svg version="1.1" id="Layer_1" xmlns="http://www.w3.org/2000/svg" xmlns:xlink="http://www.w3.org/1999/xlink" x="0px" y="0px"
	 viewBox="0 0 325 66" style="enable-background:new 0 0 325 66;" xml:space="preserve">
<style type="text/css">
	.st0{fill:#FFFFFF;}
</style>
<g>
	<path class="st0" d="M26.6,9.3c14.9,0,23.5,9.7,23.5,24.1s-8.6,24-23.5,24H11.3V9.3H26.6z M44.5,33.4c0-11.7-6.7-18.4-17.7-18.4H17
		v36.7h9.8C37.8,51.7,44.5,45.1,44.5,33.4z"/>
	<path class="st0" d="M83,45.5H62.2l-4.3,11.9H52L69.8,9.3h6l17.8,48.1h-6.2L83,45.5z M81,39.9l-8.4-23.2l-8.4,23.2H81z"/>
	<path class="st0" d="M112.5,52.7c6.8,0,10.9-4.9,10.9-12.2V9.3h5.7v31.2c0,10.9-6.7,17.9-16.6,17.9S96.3,51.3,96.1,42h5.7
		C101.9,47.8,105.7,52.7,112.5,52.7z"/>
	<path class="st0" d="M168.4,9.3v5.6h-25.1V30h23.2v5.6h-23.2v16.2h25.5v5.6h-31.2V9.3H168.4z"/>
	<path class="st0" d="M173.6,33.3c0-14.5,9.7-25.1,22.8-25.1s22.8,10.6,22.8,25.1s-9.7,25.1-22.8,25.1
		C183.4,58.5,173.6,47.8,173.6,33.3z M213.6,33.3c0-11.3-7.3-19.4-17.2-19.4c-9.9,0-17.1,8-17.1,19.4c0,11.3,7.3,19.4,17.2,19.4
		C206.3,52.7,213.6,44.6,213.6,33.3z"/>
	<path class="st0" d="M232,9.3l26.2,37.4V9h5.7v48.1h-5.3l-26.2-37.4v37.7h-5.7V9.3H232z"/>
	<path class="st0" d="M271.2,33.3c0-14.5,9.5-25.1,22.7-25.1c11,0,19.3,7.1,21.5,16.3h-6.2c-1.8-6.1-7.9-10.6-15.3-10.6
		c-10,0-17.1,8.1-17.1,19.4c0,11.3,7.1,19.5,17.2,19.5c8.9,0,15.4-6.5,16.1-15.2h-17.2v-5.5h23.3v2.2c0,14.2-9.7,24.1-22.4,24.1
		C280.6,58.5,271.2,47.8,271.2,33.3z"/>
</g>
</svg>
