<svg width="36" height="36" viewBox="0 0 36 36" fill="none" xmlns="http://www.w3.org/2000/svg">
<g clip-path="url(#clip0_34_433)">
<path d="M6.37939 0H29.6206C33.1335 0 36 2.91113 36 6.54283V29.4572C36 33.06 33.1616 36 29.6206 36H6.37939C2.83841 35.9712 0 33.06 0 29.4283V6.54283C0 2.91113 2.83841 0 6.37939 0Z" fill="#330000"/>
<path d="M17.9939 22.2188H12.397L11.272 25.7344C11.2439 25.875 11.1314 25.9594 10.9908 25.9313H8.17825C8.0095 25.9313 7.98138 25.8469 8.0095 25.65L12.847 11.7562C12.9033 11.6156 12.9314 11.4469 12.9876 11.25C13.0439 10.9406 13.072 10.6031 13.072 10.2656C13.0439 10.1812 13.1283 10.125 13.1845 10.0969H17.0658C17.1783 10.0969 17.2345 10.1531 17.2626 10.2094L22.747 25.65C22.8033 25.8188 22.747 25.9031 22.6064 25.9031H19.4564C19.3439 25.9313 19.2595 25.8469 19.2033 25.7344L17.9939 22.2188ZM13.2689 19.1531H17.0658C16.9814 18.8438 16.8689 18.45 16.7283 18.0844C16.5876 17.6906 16.447 17.2406 16.3345 16.7906C16.1939 16.3125 16.0533 15.8625 15.9126 15.4125C15.772 14.9344 15.6314 14.5125 15.5189 14.0906C15.4064 13.6688 15.2939 13.275 15.1814 12.9094H15.1533C15.0126 13.5563 14.8439 14.2031 14.647 14.85C14.422 15.5812 14.197 16.3125 13.9439 17.0719C13.7189 17.8313 13.4939 18.5344 13.2689 19.1531ZM26.0939 12.7688C25.5876 12.7969 25.1095 12.6 24.772 12.2344C24.4345 11.8688 24.2376 11.3625 24.2658 10.8563C24.2376 10.35 24.4345 9.87188 24.8001 9.53438C25.1658 9.19688 25.6439 9 26.122 9C26.7126 9 27.1626 9.16875 27.5001 9.53438C27.8376 9.9 28.0064 10.3781 28.0064 10.8563C28.0345 11.3625 27.8376 11.8688 27.472 12.2344C27.1064 12.6 26.6001 12.7969 26.0939 12.7688ZM24.4064 25.7906V14.2313C24.4064 14.0906 24.4626 14.0344 24.6033 14.0344H27.5845C27.7251 14.0344 27.7814 14.1188 27.7814 14.2313V25.7906C27.7814 25.9594 27.7251 26.0438 27.5845 26.0438H24.6314C24.4908 26.0156 24.4064 25.9313 24.4064 25.7906Z" fill="#FF9A00"/>
</g>
<defs>
<clipPath id="clip0_34_433">
<rect width="36" height="36" fill="white"/>
</clipPath>
</defs>
</svg>
