<svg width="36" height="36" viewBox="0 0 36 36" fill="none" xmlns="http://www.w3.org/2000/svg">
<g clip-path="url(#clip0_34_426)">
<path d="M27.5625 0H8.4375C3.7776 0 0 3.7776 0 8.4375V27.5625C0 32.2224 3.7776 36 8.4375 36H27.5625C32.2224 36 36 32.2224 36 27.5625V8.4375C36 3.7776 32.2224 0 27.5625 0Z" fill="url(#paint0_linear_34_426)"/>
<path d="M11.1428 9.66642C9.73852 11.7221 9.91346 14.3961 10.9833 16.5776L11.0621 16.733L11.1152 16.8314C11.1251 16.8505 11.1363 16.8694 11.1466 16.8879C11.1652 16.9225 11.1837 16.9557 11.1998 16.9898L11.3021 17.1686L11.3605 17.2671L11.4793 17.4563L11.5325 17.5361C11.5856 17.6212 11.6457 17.7057 11.7047 17.7891L11.7095 17.7957C11.7188 17.809 11.7292 17.8223 11.7362 17.8356C11.7872 17.9073 11.8424 17.9781 11.8956 18.0482L11.9546 18.1247L12.0995 18.3061L12.1547 18.3736C12.2206 18.4531 12.288 18.5315 12.3568 18.6086L12.361 18.6128C12.3637 18.6162 12.3664 18.6182 12.3691 18.6216C12.4356 18.6968 12.504 18.7704 12.5742 18.8422L12.6402 18.9097L12.8042 19.0735L12.8711 19.1384C12.9449 19.209 13.0197 19.2783 13.0957 19.3465L13.1383 19.3836L13.3422 19.5591L13.4266 19.6277L13.5967 19.7606L13.6877 19.8311L13.9477 20.0211C13.9543 20.0256 13.9601 20.0303 13.9668 20.0348C14.0279 20.0775 14.0899 20.1187 14.152 20.1599L14.2323 20.2143L14.5226 20.3951L14.6029 20.4411L14.8209 20.5654C14.8606 20.5872 14.9014 20.608 14.9412 20.6287L15.097 20.7084L15.1329 20.726L15.1967 20.7574L15.4438 20.8738L15.4963 20.9004C15.5916 20.9427 15.6877 20.9833 15.7844 21.0223L15.8546 21.0506L16.1264 21.1531L16.1604 21.1653C16.2609 21.2008 16.3619 21.2345 16.4635 21.2664L16.5366 21.2887C16.6429 21.3206 16.7426 21.3587 16.8495 21.3791C23.6403 22.6433 25.6134 17.2256 25.6134 17.2256C23.9567 19.4238 21.0159 20.0032 18.2299 19.3582C18.1243 19.3316 18.0219 19.3005 17.9188 19.2694L17.8412 19.2428C17.7409 19.2114 17.6412 19.1784 17.5419 19.1437L17.5007 19.1285C17.4123 19.0966 17.3243 19.0634 17.2368 19.0288L17.1624 18.999C17.0666 18.9606 16.9716 18.9204 16.8774 18.8783L16.8205 18.8529L16.5802 18.7386L16.5112 18.7045C16.4487 18.6731 16.3866 18.641 16.325 18.6081L16.2009 18.5415C16.1259 18.5005 16.0517 18.4581 15.9782 18.4143L15.903 18.3717C15.8053 18.3129 15.7085 18.2527 15.6127 18.191C15.5861 18.1737 15.5605 18.1554 15.5342 18.1378L15.3277 17.998L15.2613 17.9502L15.066 17.8066L14.9792 17.7401L14.803 17.5998L14.7244 17.5361L14.505 17.35C14.4966 17.3427 14.4877 17.3358 14.4784 17.3295C14.4005 17.2594 14.3236 17.1882 14.2478 17.1157L14.1828 17.052L14.0169 16.8867L13.9522 16.8202C13.8831 16.7484 13.8153 16.6754 13.7489 16.6012C13.7456 16.5974 13.7418 16.594 13.7387 16.5905C13.6684 16.5121 13.5997 16.4324 13.5324 16.3513L13.4784 16.2859L13.3297 16.099L13.2751 16.03L13.1037 15.7974C11.5568 13.6484 11.0039 10.6845 12.2371 8.25033L11.1428 9.66642ZM15.502 7.93448C14.4867 9.423 14.5417 11.415 15.3339 12.9891C15.4663 13.2534 15.6164 13.5085 15.783 13.7527C15.9352 13.9747 16.1039 14.2393 16.3059 14.4173C16.379 14.497 16.4555 14.5768 16.5337 14.6582C16.5534 14.6786 16.5736 14.698 16.5937 14.7185C16.6696 14.7938 16.7473 14.8673 16.8266 14.9389L16.8361 14.9473C16.9255 15.0267 17.0169 15.1039 17.1102 15.1786L17.172 15.2274C17.2648 15.3006 17.3596 15.3711 17.4563 15.4391C17.4588 15.4412 17.4615 15.4433 17.4643 15.4453C17.5068 15.4752 17.5507 15.5036 17.594 15.5323C17.6148 15.5462 17.6343 15.5609 17.6551 15.5738C17.7245 15.6192 17.7948 15.663 17.8659 15.7054L17.8958 15.723L18.0818 15.8293C18.1036 15.8418 18.1258 15.8527 18.1482 15.8643L18.2811 15.933C18.2878 15.9365 18.2944 15.939 18.3008 15.9422C18.3903 15.9874 18.4805 16.03 18.5727 16.0712C18.5924 16.0799 18.6125 16.0879 18.6328 16.0964C18.7066 16.1285 18.7811 16.1592 18.8561 16.1886L18.9517 16.2243C19.0196 16.2495 19.0878 16.2736 19.1565 16.2969L19.2489 16.3268C19.3464 16.3579 19.4429 16.3967 19.5447 16.414C24.7878 17.2987 25.9986 13.1871 25.9986 13.1871C24.9075 14.7873 22.7946 15.5513 20.5394 14.9553C20.4396 14.9287 20.3407 14.8995 20.2425 14.8676C20.2124 14.8583 20.183 14.8485 20.1532 14.841C20.0836 14.818 20.0144 14.7938 19.9457 14.7682L19.8517 14.7326C19.7765 14.706 19.7021 14.6728 19.6285 14.6409C19.6083 14.632 19.588 14.6242 19.5682 14.6149C19.4757 14.5744 19.3844 14.5312 19.2944 14.4854C19.2482 14.4623 19.2027 14.4381 19.1572 14.4141L19.078 14.3727C19.0195 14.3405 18.9617 14.3073 18.9045 14.273L18.863 14.2464C18.7922 14.2041 18.7222 14.1605 18.653 14.1157C18.6316 14.1017 18.611 14.0891 18.5897 14.0726L18.4536 13.9809C18.3575 13.9129 18.263 13.8425 18.1703 13.7699L18.1064 13.7188C17.1195 12.9251 16.3369 11.8406 15.9651 10.6107C15.5752 9.33483 15.6594 7.90341 16.3372 6.74156L15.502 7.93448ZM19.1676 6.64059C18.5689 7.53792 18.5103 8.65223 18.9284 9.64322C19.3664 10.695 20.264 11.5203 21.3115 11.9114C21.3547 11.9278 21.398 11.9423 21.4444 11.9573L21.5019 11.9759C21.5635 11.9956 21.625 12.0184 21.6886 12.0308C24.5837 12.6003 25.3689 10.5176 25.5778 10.2111C24.8899 11.2199 23.7339 11.4621 22.3156 11.1115C22.2039 11.0835 22.0803 11.0423 21.9699 11.0036C21.8312 10.9533 21.6952 10.8957 21.5626 10.8311C21.3102 10.7072 21.0708 10.5584 20.848 10.3868C19.5761 9.40598 18.7875 7.53525 19.6157 6.01172M12.7738 25.6894L12.5777 26.3848L12.7738 25.6897V25.6894ZM18.5376 24.0972H17.6391C17.6137 24.0982 17.5892 24.1073 17.5694 24.1233C17.5496 24.1393 17.5355 24.1613 17.5291 24.186L16.8911 27.1384C16.8848 27.1629 16.8707 27.1848 16.8509 27.2007C16.8312 27.2167 16.8068 27.2258 16.7814 27.2268H16.1454C15.516 27.2268 15.5888 26.7917 15.72 26.1955L15.7241 26.1775L15.8003 25.7708L15.8332 25.6033L16.1236 24.186C16.1264 24.1751 16.1265 24.1638 16.1241 24.1529C16.1217 24.142 16.1168 24.1318 16.1098 24.1232C16.1027 24.1145 16.0937 24.1076 16.0835 24.1031C16.0733 24.0985 16.0622 24.0964 16.051 24.0969H15.1287C15.1032 24.0978 15.0788 24.1069 15.059 24.1229C15.0392 24.1389 15.0252 24.161 15.0191 24.1857L14.6036 26.1564C14.3751 27.1994 14.4357 28.1942 15.6775 28.2253L15.7134 28.226H17.6623C17.6877 28.225 17.7122 28.2158 17.732 28.1998C17.7517 28.1838 17.7658 28.1619 17.7721 28.1372L18.6125 24.1857C18.6232 24.1369 18.5904 24.0969 18.5408 24.0969L18.5376 24.0972ZM22.1225 27.2372C22.1726 27.2372 22.2023 27.277 22.1951 27.326L22.1079 27.7526L22.1225 27.2372Z" fill="white"/>
<path d="M19.7188 26.6883C19.7181 26.6414 19.7713 26.5612 19.8212 26.5612L19.709 26.5593C19.6558 27.0681 19.7188 26.6883 19.7188 26.6883ZM22.1225 27.2374C22.1726 27.2374 22.2023 27.2772 22.1951 27.3262L22.0936 27.8221L22.1225 27.2374ZM20.4509 28.2772H20.4089H20.4563H20.4509ZM7.24076 26.6988L7.3804 26.0801L7.22093 26.7871L7.20223 26.8759L7.24104 26.6984L7.24076 26.6988ZM8.91167 24.0873H7.92476C7.89925 24.0883 7.87473 24.0974 7.85479 24.1134C7.83485 24.1293 7.82054 24.1512 7.81395 24.1759L7.62678 24.9998C7.62367 25.0105 7.62317 25.0217 7.62533 25.0326C7.62748 25.0435 7.63223 25.0538 7.63916 25.0624C7.64609 25.0711 7.65502 25.078 7.66517 25.0825C7.67533 25.087 7.68642 25.0891 7.69751 25.0884H8.69215C8.71758 25.0874 8.74202 25.0783 8.76183 25.0623C8.78165 25.0464 8.79578 25.0244 8.80212 24.9998L8.98296 24.1739C8.99351 24.1254 8.96159 24.0854 8.91125 24.0854L8.91167 24.0873ZM5.82987 29.8986L6.64381 29.9051C6.40348 29.9051 6.00678 29.9006 5.82959 29.8985L5.82987 29.8986Z" fill="white"/>
<path d="M8.62571 25.3722H7.63079C7.60528 25.3732 7.58076 25.3824 7.56082 25.3983C7.54088 25.4142 7.52657 25.4361 7.51998 25.4608L7.24084 26.6983L7.20203 26.8759L6.93624 28.1393C6.92312 28.1984 6.90718 28.2566 6.88843 28.314C6.88843 28.314 6.70239 28.8669 6.39034 28.8607L6.08068 28.8549C6.05528 28.8556 6.03076 28.8644 6.01068 28.88C5.9906 28.8956 5.97601 28.9171 5.96903 28.9416L5.76301 29.8088C5.75978 29.8194 5.75915 29.8306 5.76116 29.8415C5.76316 29.8524 5.76775 29.8627 5.77454 29.8714C5.78133 29.8802 5.79013 29.8872 5.80018 29.8919C5.81024 29.8965 5.82126 29.8987 5.83234 29.8982L6.64656 29.9048C7.42703 29.9048 7.83821 29.4723 8.10203 28.2283L8.7001 25.4639C8.71079 25.4154 8.67831 25.3755 8.62839 25.3755L8.62571 25.3722ZM22.7566 28.2265C22.7066 28.2265 22.6768 28.1867 22.6848 28.1377L23.4331 24.6328L22.7566 28.2265Z" fill="white"/>
<path d="M22.6956 28.1822C22.6896 28.1578 22.6931 28.0979 22.7037 28.0492L23.0587 26.3853L22.6845 28.1378C22.6738 28.1867 22.7063 28.2265 22.7563 28.2265H22.8472C22.7973 28.2265 22.7015 28.2066 22.6956 28.1822ZM23.7377 28.2066C23.7105 28.2172 23.6472 28.2265 23.5973 28.2265H23.6882C23.7135 28.2256 23.7379 28.2164 23.7576 28.2003C23.7773 28.1842 23.7911 28.1622 23.7972 28.1375L23.8153 28.0488C23.8055 28.0976 23.7621 28.1957 23.7356 28.2066H23.7377ZM26.9002 24.8676L26.9414 25.0377C26.9529 25.0864 26.9213 25.1259 26.8715 25.1262M24.0814 26.7293L24.1181 26.5528L24.2608 25.8843L24.0992 26.6413L24.0814 26.729V26.7293ZM23.4453 24.5752L23.4142 24.7213L23.059 26.3853L23.4334 24.6329L23.4453 24.5755V24.5752Z" fill="white"/>
<path d="M26.9416 25.0378L26.9004 24.8677L26.8394 24.6019C26.7585 24.2882 26.5214 24.1066 26.0063 24.1066L23.6352 24.1051C23.6098 24.1059 23.5854 24.1151 23.5656 24.1311C23.5459 24.1471 23.5319 24.1691 23.5258 24.1938L23.4891 24.3675L23.436 24.6297L22.7065 28.0462C22.6958 28.0952 22.6925 28.1525 22.6985 28.1791C22.7046 28.2057 22.8003 28.2236 22.8501 28.2236H23.5996C23.6496 28.2236 23.7126 28.2144 23.74 28.2036C23.7674 28.1926 23.8075 28.0973 23.8197 28.0457L24.1042 26.6384L24.4085 25.2126C24.4149 25.1881 24.4289 25.1662 24.4487 25.1503C24.4684 25.1344 24.4927 25.1252 24.5181 25.1242L26.8765 25.123C26.9263 25.123 26.9579 25.0833 26.9464 25.0346L26.9416 25.0378ZM29.978 23.498L29.7964 23.4987H29.0415C29.0139 23.5005 28.987 23.5081 28.9625 23.521C28.9381 23.5339 28.9166 23.5519 28.8995 23.5736L27.2303 26.0191C27.2022 26.0603 27.17 26.0543 27.1586 26.0059L27.0357 25.467C27.0291 25.4424 27.0147 25.4205 26.9948 25.4046C26.9749 25.3887 26.9504 25.3796 26.9249 25.3786H25.8519C25.8018 25.3786 25.7722 25.4177 25.7859 25.4658L26.2643 27.1504C26.2781 27.1983 26.279 27.2771 26.267 27.3258L26.0544 28.1411C26.0507 28.1516 26.0498 28.1628 26.0516 28.1737C26.0534 28.1846 26.0579 28.1949 26.0647 28.2036C26.0715 28.2123 26.0804 28.2191 26.0905 28.2236C26.1006 28.228 26.1117 28.2299 26.1227 28.229H27.1859C27.2115 28.228 27.2362 28.219 27.2565 28.2032C27.2768 28.1875 27.2918 28.1659 27.2992 28.1413L27.5118 27.3261C27.5284 27.2687 27.5546 27.2144 27.5889 27.1656L30.3017 23.5684C30.3318 23.5285 30.3156 23.4962 30.2655 23.4966L29.9812 23.4985L29.978 23.498ZM21.4519 25.6076C21.4455 25.6608 21.3956 25.7007 21.3456 25.7007H19.9846C19.9376 25.7007 19.9137 25.6688 19.9209 25.6289L19.9219 25.6217L19.9281 25.5986C20.061 25.2531 20.3228 25.0263 20.82 25.0263C21.3802 25.0263 21.4894 25.3001 21.4515 25.6076H21.4519ZM21.0526 24.0373C19.3064 24.0373 18.8925 25.0973 18.6605 26.1672C18.4282 27.2577 18.4483 28.2777 20.2553 28.2777H20.5418L20.7624 28.2768L21.9123 28.27C21.9375 28.2688 21.9617 28.2595 21.9812 28.2435C22.0007 28.2274 22.0145 28.2055 22.0204 28.1809L22.1951 27.3272C22.2052 27.2783 22.1726 27.2383 22.1225 27.2383H20.4979C19.852 27.2383 19.6599 27.0666 19.7305 26.5619H22.3275C22.3484 26.5617 22.3688 26.5552 22.386 26.5433C22.4031 26.5313 22.4163 26.5145 22.4237 26.495C22.4267 26.4877 22.4289 26.4801 22.4301 26.4723C22.8155 25.0184 22.705 24.0384 21.0532 24.0384L21.0526 24.0373ZM12.7982 25.6019L12.7738 25.6888L12.5777 26.384L12.3816 27.0789C12.3734 27.1033 12.358 27.1247 12.3374 27.1403C12.3168 27.1559 12.292 27.1648 12.2663 27.166H11.2279C10.4405 27.166 10.2488 26.5503 10.4405 25.642C10.6319 24.713 11.0081 24.1353 11.7829 24.0769C12.8418 23.9972 13.0535 24.742 12.7982 25.6016V25.6019ZM13.5101 27.1129C13.5101 27.1129 13.9992 25.9248 14.1108 25.2382C14.2623 24.3192 13.8026 22.9868 12.0256 22.9868C10.2587 22.9868 9.49158 24.2589 9.19908 25.6449C8.90658 27.0377 9.28992 28.2594 11.0463 28.2498L13.7272 28.24C13.7529 28.2388 13.7776 28.2296 13.798 28.2138C13.8183 28.198 13.8333 28.1763 13.8408 28.1517L14.0667 27.2911C14.0703 27.2806 14.0712 27.2695 14.0695 27.2586C14.0678 27.2477 14.0634 27.2374 14.0568 27.2286C14.0501 27.2198 14.0413 27.2128 14.0312 27.2083C14.021 27.2038 14.0099 27.2019 13.9989 27.2028L13.5665 27.2001C13.524 27.1998 13.5 27.1725 13.5047 27.1364C13.5058 27.1295 13.5076 27.1227 13.5101 27.1161V27.1129Z" fill="white"/>
<path d="M22.2563 26.3179C22.2563 26.3336 22.25 26.3488 22.2389 26.36C22.2277 26.3711 22.2126 26.3774 22.1968 26.3774C22.181 26.3774 22.1658 26.3711 22.1546 26.36C22.1435 26.3488 22.1372 26.3336 22.1372 26.3179C22.1372 26.3021 22.1435 26.2869 22.1546 26.2757C22.1658 26.2646 22.181 26.2583 22.1968 26.2583C22.2126 26.2583 22.2277 26.2646 22.2389 26.2757C22.25 26.2869 22.2563 26.3021 22.2563 26.3179Z" fill="white"/>
</g>
<defs>
<linearGradient id="paint0_linear_34_426" x1="0" y1="0" x2="36" y2="36" gradientUnits="userSpaceOnUse">
<stop stop-color="#FF5C00"/>
<stop offset="1" stop-color="#FF0F00"/>
</linearGradient>
<clipPath id="clip0_34_426">
<rect width="36" height="36" fill="white"/>
</clipPath>
</defs>
</svg>
